<svg xmlns="http://www.w3.org/2000/svg" version="1.1"
    xmlns:xlink="http://www.w3.org/1999/xlink"
    xmlns:svgjs="http://svgjs.dev/svgjs" width="1000" height="267" viewBox="0 0 1000 267">
    <g transform="matrix(1,0,0,1,-0.6060606060606233,0.04334264493505202)">
        <svg viewBox="0 0 396 106" data-background-color="#c8c8c8" preserveAspectRatio="xMidYMid meet" height="267" width="1000"
            xmlns="http://www.w3.org/2000/svg"
            xmlns:xlink="http://www.w3.org/1999/xlink">
            <g id="tight-bounds" transform="matrix(1,0,0,1,0.2400000000000091,-0.017207192371216706)">
                <svg viewBox="0 0 395.52 106.03424181545431" height="106.03424181545431" width="395.52">
                    <g>
                        <svg viewBox="0 0 581.7106112001638 155.9497461939065" height="106.03424181545431" width="395.52">
                            <g transform="matrix(1,0,0,1,186.19061120016391,45.95037144678823)">
                                <svg viewBox="0 0 395.52 64.04900330033003" height="64.04900330033003" width="395.52">
                                    <g id="textblocktransform">
                                        <svg viewBox="0 0 395.52 64.04900330033003" height="64.04900330033003" width="395.52" id="textblock">
                                            <g>
                                                <svg viewBox="0 0 395.52 64.04900330033003" height="64.04900330033003" width="395.52">
                                                    <g transform="matrix(1,0,0,1,0,0)">
                                                        <svg width="395.52" viewBox="0 -35.79999923706055 227.24000549316406 36.79999923706055" height="64.04900330033003" data-palette-color="#6b7280">
                                                            <path d="M14.95-35.8Q22.9-35.8 27.8-31.05L27.8-31.05 23.25-25.7Q19.75-28.5 15.8-28.5L15.8-28.5Q13.95-28.5 13-27.85 12.05-27.2 12.05-26L12.05-26Q12.05-25.1 12.58-24.53 13.1-23.95 14.33-23.45 15.55-22.95 18.3-22.05L18.3-22.05Q23.8-20.3 26.23-17.65 28.65-15 28.65-10.4L28.65-10.4Q28.65-7.05 26.88-4.48 25.1-1.9 21.8-0.45 18.5 1 14 1L14 1Q9.4 1 5.9-0.45 2.4-1.9 0-4.25L0-4.25 5.05-9.8Q9-6.4 13.6-6.4L13.6-6.4Q15.75-6.4 16.85-7.28 17.95-8.15 17.95-9.55L17.95-9.55Q17.95-10.6 17.48-11.3 17-12 15.8-12.6 14.6-13.2 12.3-13.9L12.3-13.9Q6.25-15.8 3.85-18.48 1.45-21.15 1.45-25.15L1.45-25.15Q1.45-28.4 3.2-30.8 4.95-33.2 8.03-34.5 11.1-35.8 14.95-35.8L14.95-35.8ZM60.1 0L49.8 0 49.8-14.05 41.85-14.05 41.85 0 31.55 0 31.55-34.8 41.85-34.8 41.85-21.95 49.8-21.95 49.8-34.8 60.1-34.8 60.1 0ZM92.8-34.8L92.8-11.8Q92.8-8.15 91.2-5.25 89.59-2.35 86.34-0.68 83.09 1 78.34 1L78.34 1Q71.2 1 67.55-2.45 63.9-5.9 63.9-11.8L63.9-11.8 63.9-34.8 74.2-34.8 74.2-12.1Q74.2-9.15 75.17-7.78 76.15-6.4 78.34-6.4L78.34-6.4Q80.55-6.4 81.52-7.78 82.5-9.15 82.5-12.1L82.5-12.1 82.5-34.8 92.8-34.8ZM117.04-18.45Q120.49-17.75 122.64-15.88 124.79-14 124.79-10.3L124.79-10.3Q124.79-4.55 120.62-2.27 116.44 0 108.79 0L108.79 0 96.59 0 96.59-34.8 107.44-34.8Q115.19-34.8 119.27-32.73 123.34-30.65 123.34-25.8L123.34-25.8Q123.34-22.7 121.54-20.93 119.74-19.15 117.04-18.45L117.04-18.45ZM108.39-27.75L106.89-27.75 106.89-21.35 108.64-21.35Q110.99-21.35 111.94-22.13 112.89-22.9 112.89-24.75L112.89-24.75Q112.89-26.3 111.87-27.03 110.84-27.75 108.39-27.75L108.39-27.75ZM108.89-7.25Q111.49-7.25 112.84-8.05 114.19-8.85 114.19-11L114.19-11Q114.19-13 112.97-13.93 111.74-14.85 109.29-14.85L109.29-14.85 106.89-14.85 106.89-7.25 108.89-7.25ZM156.24 0L145.94 0 145.94-14.05 137.99-14.05 137.99 0 127.69 0 127.69-34.8 137.99-34.8 137.99-21.95 145.94-21.95 145.94-34.8 156.24-34.8 156.24 0ZM189.69 0L178.79 0 177.44-6.75 169.19-6.75 167.89 0 157.14 0 167.29-34.8 179.59-34.8 189.69 0ZM173.29-27.6L170.64-13.95 175.99-13.95 173.29-27.6ZM224.74-34.8L227.24 0 217.09 0 216.84-12.35Q216.79-13.8 216.79-16.7L216.79-16.7Q216.79-21.8 217.19-26.55L217.19-26.55 213.09-3.5 203.34-3.5 198.94-26.55Q199.59-19.6 199.59-14.65L199.59-14.65 199.59-12.4 199.34 0 189.19 0 191.69-34.8 204.39-34.8 208.39-12.25 211.99-34.8 224.74-34.8Z" opacity="1" transform="matrix(1,0,0,1,0,0)" fill="#6b7280" class="wordmark-text-0" data-fill-palette-color="primary" id="text-0"></path>
                                                        </svg>
                                                    </g>
                                                </svg>
                                            </g>
                                        </svg>
                                    </g>
                                </svg>
                            </g>
                            <g>
                                <svg viewBox="0 0 155.9497461939065 155.9497461939065" height="155.9497461939065" width="155.9497461939065">
                                    <g>
                                        <svg></svg>
                                    </g>
                                    <g id="icon-0">
                                        <svg viewBox="0 0 155.9497461939065 155.9497461939065" height="155.9497461939065" width="155.9497461939065">
                                            <g>
                                                <path d="M0 77.975c0-43.064 34.911-77.975 77.975-77.975 43.064 0 77.975 34.911 77.975 77.975 0 43.064-34.911 77.975-77.975 77.975-43.064 0-77.975-34.911-77.975-77.975zM77.975 150.174c39.874 0 72.199-32.325 72.199-72.199 0-39.874-32.325-72.199-72.199-72.199-39.874 0-72.199 32.325-72.199 72.199 0 39.874 32.325 72.199 72.199 72.199z" data-fill-palette-color="accent" fill="#97978d" stroke="transparent"></path>
                                                <ellipse rx="77.19512436598372" ry="77.19512436598372" cx="77.97487309695325" cy="77.97487309695325" fill="#97978d" stroke="transparent" stroke-width="0" fill-opacity="1" data-fill-palette-color="accent"></ellipse>
                                            </g>
                                            <g transform="matrix(1,0,0,1,32.850957553630685,38.22039095189672)">
                                                <svg viewBox="0 0 90.24783108664512 79.50896429011306" height="79.50896429011306" width="90.24783108664512">
                                                    <g>
                                                        <svg xmlns="http://www.w3.org/2000/svg"
                                                            xmlns:xlink="http://www.w3.org/1999/xlink" version="1.1" x="0" y="0" viewBox="6.300000190734863 11.5 87.39999389648438 77" style="enable-background:new 0 0 100 100;" xml:space="preserve" height="79.50896429011306" width="90.24783108664512" class="icon-s-0" data-fill-palette-color="quaternary" id="s-0">
                                                            <path d="M72.3 12.3L72.3 12.3 72.3 12.3l-0.4-0.8H28.2L6.3 50l21.8 38.5h43.7L93.7 50 72.3 12.3zM33.3 25.3L9.9 47.7l18.6-32.8L33.3 25.3zM70.7 14.8l6.4 35.7L36.9 25.8 70.7 14.8zM35.5 27.3l41 25.2-41 23.3V27.3zM77 54.5l-7.2 30.8-32.6-8.1L77 54.5zM33.5 75L9.9 50.5l23.6-22.7V75zM33.2 77.6l-4.6 7.7L11.5 55.1 33.2 77.6zM35 78.6l31.4 7.9H30.2L35 78.6zM79.3 53.3l11.6-2.5L72.1 84 79.3 53.3zM90.7 48.9l-11.4 2.5-5.9-33.1L90.7 48.9zM35 24.3l-5-10.8h38.2L35 24.3z" fill="#c8c8c8" data-fill-palette-color="quaternary"></path>
                                                        </svg>
                                                    </g>
                                                </svg>
                                            </g>
                                        </svg>
                                    </g>
                                </svg>
                            </g>
                        </svg>
                    </g>
                    <defs></defs>
                </svg>
                <rect width="395.52" height="106.03424181545431" fill="none" stroke="none" visibility="hidden"></rect>
            </g>
        </svg>
    </g>
</svg>